<?xml version="1.0" encoding="UTF-8"?>
<svg xmlns="http://www.w3.org/2000/svg" height="415.74803149606305" width="1118.7779527559053" xmlns:kdd="https://io.github.oliviercailloux.keyboardd">
    <style>text {
text-anchor: middle;
dominant-baseline: middle;
font-size: 9.0px;
}</style>
    <style type="text/css">
      .fn {
        text-anchor: middle;
        dominant-baseline: middle;
        font-size: 25.0px;
        font-family: "Unifont";
      }
      .attempt {
        text-anchor: middle;
        dominant-baseline: middle;
        font-size: 50.0px;
        font-family: "Unifont";
    }
</style>
    <style>rect {
      fill-opacity: 0;
      stroke: black;
      stroke-width: 1px;
      }path {
fill-opacity: 0;
stroke: black;
stroke-width: 1px;
}</style>
    <rect height="60.47244094488189" kdd:x-key-name="ESC" rx="10.0" width="62.58897637795275"/>
    <g transform="translate(0.0, 0.0)">
        <text x="31.294488188976374" y="30.236220472440944"/>
    </g>
    <rect height="60.47244094488189" kdd:x-key-name="FK01" rx="10.0" width="62.58897637795275" x="70.41259842519685" y="0.0"/>
    <rect height="60.47244094488189" kdd:x-key-name="FK02" rx="10.0" width="62.58897637795275" x="140.8251968503937" y="0.0"/>
    <rect height="60.47244094488189" kdd:x-key-name="FK03" rx="10.0" width="62.58897637795275" x="211.23779527559054" y="0.0"/>
    <rect height="60.47244094488189" kdd:x-key-name="FK04" rx="10.0" width="62.58897637795275" x="281.6503937007874" y="0.0"/>
    <rect height="60.47244094488189" kdd:x-key-name="FK05" rx="10.0" width="62.58897637795275" x="352.0629921259842" y="0.0"/>
    <rect height="60.47244094488189" kdd:x-key-name="FK06" rx="10.0" width="62.58897637795275" x="422.475590551181" y="0.0"/>
    <rect height="60.47244094488189" kdd:x-key-name="FK07" rx="10.0" width="62.58897637795275" x="492.8881889763779" y="0.0"/>
    <rect height="60.47244094488189" kdd:x-key-name="FK08" rx="10.0" width="62.58897637795275" x="563.3007874015747" y="0.0"/>
    <rect height="60.47244094488189" kdd:x-key-name="FK09" rx="10.0" width="62.58897637795275" x="633.7133858267716" y="0.0"/>
    <rect height="60.47244094488189" kdd:x-key-name="FK10" rx="10.0" width="62.58897637795275" x="704.1259842519684" y="0.0"/>
    <rect height="60.47244094488189" kdd:x-key-name="FK11" rx="10.0" width="62.58897637795275" x="774.5385826771652" y="0.0"/>
    <rect height="60.47244094488189" kdd:x-key-name="FK12" rx="10.0" width="62.58897637795275" x="844.951181102362" y="0.0"/>
    <rect height="60.47244094488189" kdd:x-key-name="PRSC" rx="10.0" width="62.58897637795275" x="915.3637795275589" y="0.0"/>
    <g transform="translate(946.6582677165353, 0.0)">
        <text x="15.647244094488187" y="30.236220472440944">Sys_Req</text>
    </g>
    <g transform="translate(915.3637795275589, 0.0)">
        <text x="15.647244094488187" y="30.236220472440944">Print</text>
    </g>
    <rect height="60.47244094488189" kdd:x-key-name="PAUS" rx="10.0" width="62.58897637795275" x="985.7763779527558" y="0.0"/>
    <g transform="translate(1017.0708661417322, 0.0)">
        <text x="15.647244094488187" y="30.236220472440944">Break</text>
    </g>
    <g transform="translate(985.7763779527558, 0.0)">
        <text x="15.647244094488187" y="30.236220472440944">Pause</text>
    </g>
    <rect height="60.47244094488189" kdd:x-key-name="DELE" rx="10.0" width="62.58897637795275" x="1056.1889763779525" y="0.0"/>
    <g transform="translate(1056.1889763779525, 0.0)">
        <text class="fn" x="31.294488188976374" y="30.236220472440944">a&#13;&#10;&#xD;&#xD;bb</text>
    </g>
    <rect height="60.47244094488189" kdd:x-key-name="TLDE" rx="10.0" width="62.58897637795275" x="0.0" y="71.05511811023622"/>
    <g transform="translate(31.294488188976374, 71.05511811023622)">
        <text x="15.647244094488187" y="30.236220472440944">~</text>
    </g>
    <g transform="translate(0.0, 71.05511811023622)">
        <text x="15.647244094488187" y="30.236220472440944">`</text>
    </g>
    <rect height="60.47244094488189" kdd:x-key-name="AE01" rx="10.0" width="62.58897637795275" x="70.41259842519685" y="71.05511811023622"/>
    <g transform="translate(101.70708661417322, 71.05511811023622)">
        <text x="15.647244094488187" y="30.236220472440944">!</text>
    </g>
    <g transform="translate(70.41259842519685, 71.05511811023622)">
        <text x="15.647244094488187" y="30.236220472440944">1</text>
    </g>
    <rect height="60.47244094488189" kdd:x-key-name="AE02" rx="10.0" width="62.58897637795275" x="140.8251968503937" y="71.05511811023622"/>
    <g transform="translate(172.11968503937007, 71.05511811023622)">
        <text x="15.647244094488187" y="30.236220472440944">@</text>
    </g>
    <g transform="translate(140.8251968503937, 71.05511811023622)">
        <text x="15.647244094488187" y="30.236220472440944">2</text>
    </g>
    <rect height="60.47244094488189" kdd:x-key-name="AE03" rx="10.0" width="62.58897637795275" x="211.23779527559054" y="71.05511811023622"/>
    <g transform="translate(242.53228346456692, 71.05511811023622)">
        <text x="15.647244094488187" y="30.236220472440944">#</text>
    </g>
    <g transform="translate(211.23779527559054, 71.05511811023622)">
        <text x="15.647244094488187" y="30.236220472440944">3</text>
    </g>
    <rect height="60.47244094488189" kdd:x-key-name="AE04" rx="10.0" width="62.58897637795275" x="281.6503937007874" y="71.05511811023622"/>
    <g transform="translate(312.9448818897638, 71.05511811023622)">
        <text x="15.647244094488187" y="30.236220472440944">$</text>
    </g>
    <g transform="translate(281.6503937007874, 71.05511811023622)">
        <text x="15.647244094488187" y="30.236220472440944">4</text>
    </g>
    <rect height="60.47244094488189" kdd:x-key-name="AE05" rx="10.0" width="62.58897637795275" x="352.0629921259842" y="71.05511811023622"/>
    <g transform="translate(383.3574803149605, 71.05511811023622)">
        <text x="15.647244094488187" y="30.236220472440944">%</text>
    </g>
    <g transform="translate(352.0629921259842, 71.05511811023622)">
        <text x="15.647244094488187" y="30.236220472440944">5</text>
    </g>
    <rect height="60.47244094488189" kdd:x-key-name="AE06" rx="10.0" width="62.58897637795275" x="422.475590551181" y="71.05511811023622"/>
    <g transform="translate(453.7700787401574, 71.05511811023622)">
        <text x="15.647244094488187" y="30.236220472440944">^</text>
    </g>
    <g transform="translate(422.475590551181, 71.05511811023622)">
        <text x="15.647244094488187" y="30.236220472440944">6</text>
    </g>
    <rect height="60.47244094488189" kdd:x-key-name="AE07" rx="10.0" width="62.58897637795275" x="492.8881889763779" y="71.05511811023622"/>
    <g transform="translate(524.1826771653542, 71.05511811023622)">
        <text x="15.647244094488187" y="30.236220472440944">&amp;</text>
    </g>
    <g transform="translate(492.8881889763779, 71.05511811023622)">
        <text x="15.647244094488187" y="30.236220472440944">7</text>
    </g>
    <rect height="60.47244094488189" kdd:x-key-name="AE08" rx="10.0" width="62.58897637795275" x="563.3007874015747" y="71.05511811023622"/>
    <g transform="translate(594.5952755905511, 71.05511811023622)">
        <text x="15.647244094488187" y="30.236220472440944">*</text>
    </g>
    <g transform="translate(563.3007874015747, 71.05511811023622)">
        <text x="15.647244094488187" y="30.236220472440944">8</text>
    </g>
    <rect height="60.47244094488189" kdd:x-key-name="AE09" rx="10.0" width="62.58897637795275" x="633.7133858267716" y="71.05511811023622"/>
    <g transform="translate(665.007874015748, 71.05511811023622)">
        <text x="15.647244094488187" y="30.236220472440944">(</text>
    </g>
    <g transform="translate(633.7133858267716, 71.05511811023622)">
        <text x="15.647244094488187" y="30.236220472440944">9</text>
    </g>
    <rect height="60.47244094488189" kdd:x-key-name="AE10" rx="10.0" width="62.58897637795275" x="704.1259842519684" y="71.05511811023622"/>
    <g transform="translate(735.4204724409448, 71.05511811023622)">
        <text x="15.647244094488187" y="30.236220472440944">)</text>
    </g>
    <g transform="translate(704.1259842519684, 71.05511811023622)">
        <text x="15.647244094488187" y="30.236220472440944">0</text>
    </g>
    <rect height="60.47244094488189" kdd:x-key-name="AE11" rx="10.0" width="62.58897637795275" x="774.5385826771652" y="71.05511811023622"/>
    <g transform="translate(805.8330708661416, 71.05511811023622)">
        <text x="15.647244094488187" y="30.236220472440944">_</text>
    </g>
    <g transform="translate(774.5385826771652, 71.05511811023622)">
        <text x="15.647244094488187" y="30.236220472440944">-</text>
    </g>
    <rect height="60.47244094488189" kdd:x-key-name="AE12" rx="10.0" width="62.58897637795275" x="844.951181102362" y="71.05511811023622"/>
    <g transform="translate(876.2456692913385, 71.05511811023622)">
        <text x="15.647244094488187" y="30.236220472440944">+</text>
    </g>
    <g transform="translate(844.951181102362, 71.05511811023622)">
        <text x="15.647244094488187" y="30.236220472440944">=</text>
    </g>
    <rect height="60.47244094488189" kdd:x-key-name="BKSP" rx="10.0" width="133.0015748031496" x="915.3637795275589" y="71.05511811023622"/>
    <g transform="translate(981.8645669291337, 71.05511811023622)">
        <text x="33.2503937007874" y="30.236220472440944"/>
    </g>
    <g transform="translate(915.3637795275589, 71.05511811023622)">
        <text x="33.2503937007874" y="30.236220472440944"/>
    </g>
    <rect height="60.47244094488189" kdd:x-key-name="INS" rx="10.0" width="62.58897637795275" x="1056.1889763779525" y="71.05511811023622"/>
    <g transform="translate(1056.1889763779525, 71.05511811023622)">
        <text x="31.294488188976374" y="30.236220472440944">Insert</text>
    </g>
    <rect height="60.47244094488189" kdd:x-key-name="TAB" rx="10.0" width="97.79527559055117" x="0.0" y="142.11023622047244"/>
    <g transform="translate(48.897637795275585, 142.11023622047244)">
        <text x="24.448818897637793" y="30.236220472440944">ISO_Left_Tab</text>
    </g>
    <g transform="translate(0.0, 142.11023622047244)">
        <text x="24.448818897637793" y="30.236220472440944"/>
    </g>
    <rect height="60.47244094488189" kdd:x-key-name="AD01" rx="10.0" width="62.58897637795275" x="105.61889763779526" y="142.11023622047244"/>
    <g transform="translate(136.91338582677162, 142.11023622047244)">
        <text x="15.647244094488187" y="30.236220472440944">Q</text>
    </g>
    <g transform="translate(105.61889763779526, 142.11023622047244)">
        <text x="15.647244094488187" y="30.236220472440944">q</text>
    </g>
    <rect height="60.47244094488189" kdd:x-key-name="AD02" rx="10.0" width="62.58897637795275" x="176.0314960629921" y="142.11023622047244"/>
    <g transform="translate(207.32598425196846, 142.11023622047244)">
        <text x="15.647244094488187" y="30.236220472440944">W</text>
    </g>
    <g transform="translate(176.0314960629921, 142.11023622047244)">
        <text x="15.647244094488187" y="30.236220472440944">w</text>
    </g>
    <rect height="60.47244094488189" kdd:x-key-name="AD03" rx="10.0" width="62.58897637795275" x="246.44409448818897" y="142.11023622047244"/>
    <g transform="translate(277.73858267716537, 142.11023622047244)">
        <text x="15.647244094488187" y="30.236220472440944">E</text>
    </g>
    <g transform="translate(246.44409448818897, 142.11023622047244)">
        <text x="15.647244094488187" y="30.236220472440944">e</text>
    </g>
    <rect height="60.47244094488189" kdd:x-key-name="AD04" rx="10.0" width="62.58897637795275" x="316.8566929133858" y="142.11023622047244"/>
    <g transform="translate(348.1511811023622, 142.11023622047244)">
        <text x="15.647244094488187" y="30.236220472440944">R</text>
    </g>
    <g transform="translate(316.8566929133858, 142.11023622047244)">
        <text x="15.647244094488187" y="30.236220472440944">r</text>
    </g>
    <rect height="60.47244094488189" kdd:x-key-name="AD05" rx="10.0" width="62.58897637795275" x="387.2692913385826" y="142.11023622047244"/>
    <g transform="translate(418.56377952755895, 142.11023622047244)">
        <text x="15.647244094488187" y="30.236220472440944">T</text>
    </g>
    <g transform="translate(387.2692913385826, 142.11023622047244)">
        <text x="15.647244094488187" y="30.236220472440944">t</text>
    </g>
    <rect height="60.47244094488189" kdd:x-key-name="AD06" rx="10.0" width="62.58897637795275" x="457.68188976377945" y="142.11023622047244"/>
    <g transform="translate(488.9763779527558, 142.11023622047244)">
        <text x="15.647244094488187" y="30.236220472440944">Y</text>
    </g>
    <g transform="translate(457.68188976377945, 142.11023622047244)">
        <text x="15.647244094488187" y="30.236220472440944">y</text>
    </g>
    <rect height="60.47244094488189" kdd:x-key-name="AD07" rx="10.0" width="62.58897637795275" x="528.0944881889762" y="142.11023622047244"/>
    <g transform="translate(559.3889763779526, 142.11023622047244)">
        <text x="15.647244094488187" y="30.236220472440944">U</text>
    </g>
    <g transform="translate(528.0944881889762, 142.11023622047244)">
        <text x="15.647244094488187" y="30.236220472440944">u</text>
    </g>
    <rect height="60.47244094488189" kdd:x-key-name="AD08" rx="10.0" width="62.58897637795275" x="598.5070866141731" y="142.11023622047244"/>
    <g transform="translate(629.8015748031495, 142.11023622047244)">
        <text x="15.647244094488187" y="30.236220472440944">I</text>
    </g>
    <g transform="translate(598.5070866141731, 142.11023622047244)">
        <text x="15.647244094488187" y="30.236220472440944">i</text>
    </g>
    <rect height="60.47244094488189" kdd:x-key-name="AD09" rx="10.0" width="62.58897637795275" x="668.9196850393699" y="142.11023622047244"/>
    <g transform="translate(700.2141732283463, 142.11023622047244)">
        <text x="15.647244094488187" y="30.236220472440944">O</text>
    </g>
    <g transform="translate(668.9196850393699, 142.11023622047244)">
        <text x="15.647244094488187" y="30.236220472440944">o</text>
    </g>
    <rect height="60.47244094488189" kdd:x-key-name="AD10" rx="10.0" width="62.58897637795275" x="739.3322834645668" y="142.11023622047244"/>
    <g transform="translate(770.6267716535432, 142.11023622047244)">
        <text x="15.647244094488187" y="30.236220472440944">P</text>
    </g>
    <g transform="translate(739.3322834645668, 142.11023622047244)">
        <text x="15.647244094488187" y="30.236220472440944">p</text>
    </g>
    <rect height="60.47244094488189" kdd:x-key-name="AD11" rx="10.0" width="62.58897637795275" x="809.7448818897636" y="142.11023622047244"/>
    <g transform="translate(841.03937007874, 142.11023622047244)">
        <text x="15.647244094488187" y="30.236220472440944">{</text>
    </g>
    <g transform="translate(809.7448818897636, 142.11023622047244)">
        <text x="15.647244094488187" y="30.236220472440944">[</text>
    </g>
    <rect height="60.47244094488189" kdd:x-key-name="AD12" rx="10.0" width="62.58897637795275" x="880.1574803149605" y="142.11023622047244"/>
    <g transform="translate(911.4519685039369, 142.11023622047244)">
        <text x="15.647244094488187" y="30.236220472440944">}</text>
    </g>
    <g transform="translate(880.1574803149605, 142.11023622047244)">
        <text x="15.647244094488187" y="30.236220472440944">]</text>
    </g>
    <rect height="132.01" kdd:x-key-name="RTRN" rx="10.0" style="stroke: white" width="80.19" x="968.1700787401573" y="142.11023622047244"/>
    <g transform="translate(968.1700787401574, 142.11023622047244)">
        <text x="40.095" y="66.005"/>
    </g>
    <path d="M950.5700787401573 142.11023622047244 m0 10 a10 10 0 0 1 10 -10 h77.8 a10 10 0 0 1 10 10 v111.24 a10 10 0 0 1 -10 10 h-60.19 a10 10 0 0 1 -10 -10 v-56.07 a5 5 0 0 0 -5 -5 h-2.8 a10 10 0 0 1 -10 -10 Z"/>
    <rect height="60.47244094488189" kdd:x-key-name="END" rx="10.0" width="62.58897637795275" x="1056.1889763779525" y="142.11023622047244"/>
    <g transform="translate(1056.1889763779525, 142.11023622047244)">
        <text x="31.294488188976374" y="30.236220472440944">End</text>
    </g>
    <rect height="60.47244094488189" kdd:x-key-name="CAPS" rx="10.0" width="115.39842519685038" x="0.0" y="213.1653543307087"/>
    <g transform="translate(0.0, 213.1653543307087)">
        <text x="57.69921259842519" y="30.236220472440944">Caps_Lock</text>
    </g>
    <rect height="60.47244094488189" kdd:x-key-name="AC01" rx="10.0" width="62.58897637795275" x="123.22204724409447" y="213.1653543307087"/>
    <g transform="translate(154.51653543307083, 213.1653543307087)">
        <text x="15.647244094488187" y="30.236220472440944">A</text>
    </g>
    <g transform="translate(123.22204724409447, 213.1653543307087)">
        <text x="15.647244094488187" y="30.236220472440944">a</text>
    </g>
    <rect height="60.47244094488189" kdd:x-key-name="AC02" rx="10.0" width="62.58897637795275" x="193.6346456692913" y="213.1653543307087"/>
    <g transform="translate(224.92913385826768, 213.1653543307087)">
        <text x="15.647244094488187" y="30.236220472440944">S</text>
    </g>
    <g transform="translate(193.6346456692913, 213.1653543307087)">
        <text x="15.647244094488187" y="30.236220472440944">s</text>
    </g>
    <rect height="60.47244094488189" kdd:x-key-name="AC03" rx="10.0" width="62.58897637795275" x="264.0472440944882" y="213.1653543307087"/>
    <g transform="translate(295.3417322834646, 213.1653543307087)">
        <text x="15.647244094488187" y="30.236220472440944">D</text>
    </g>
    <g transform="translate(264.0472440944882, 213.1653543307087)">
        <text x="15.647244094488187" y="30.236220472440944">d</text>
    </g>
    <rect height="60.47244094488189" kdd:x-key-name="AC04" rx="10.0" width="62.58897637795275" x="334.45984251968497" y="213.1653543307087"/>
    <g transform="translate(365.7543307086613, 213.1653543307087)">
        <text x="15.647244094488187" y="30.236220472440944">F</text>
    </g>
    <g transform="translate(334.45984251968497, 213.1653543307087)">
        <text x="15.647244094488187" y="30.236220472440944">f</text>
    </g>
    <rect height="60.47244094488189" kdd:x-key-name="AC05" rx="10.0" width="62.58897637795275" x="404.8724409448818" y="213.1653543307087"/>
    <g transform="translate(436.16692913385816, 213.1653543307087)">
        <text x="15.647244094488187" y="30.236220472440944">G</text>
    </g>
    <g transform="translate(404.8724409448818, 213.1653543307087)">
        <text x="15.647244094488187" y="30.236220472440944">g</text>
    </g>
    <rect height="60.47244094488189" kdd:x-key-name="AC06" rx="10.0" width="62.58897637795275" x="475.28503937007866" y="213.1653543307087"/>
    <g transform="translate(506.579527559055, 213.1653543307087)">
        <text x="15.647244094488187" y="30.236220472440944">H</text>
    </g>
    <g transform="translate(475.28503937007866, 213.1653543307087)">
        <text x="15.647244094488187" y="30.236220472440944">h</text>
    </g>
    <rect height="60.47244094488189" kdd:x-key-name="AC07" rx="10.0" width="62.58897637795275" x="545.6976377952755" y="213.1653543307087"/>
    <g transform="translate(576.9921259842519, 213.1653543307087)">
        <text x="15.647244094488187" y="30.236220472440944">J</text>
    </g>
    <g transform="translate(545.6976377952755, 213.1653543307087)">
        <text x="15.647244094488187" y="30.236220472440944">j</text>
    </g>
    <rect height="60.47244094488189" kdd:x-key-name="AC08" rx="10.0" width="62.58897637795275" x="616.1102362204724" y="213.1653543307087"/>
    <g transform="translate(647.4047244094488, 213.1653543307087)">
        <text x="15.647244094488187" y="30.236220472440944">K</text>
    </g>
    <g transform="translate(616.1102362204724, 213.1653543307087)">
        <text x="15.647244094488187" y="30.236220472440944">k</text>
    </g>
    <rect height="60.47244094488189" kdd:x-key-name="AC09" rx="10.0" width="62.58897637795275" x="686.5228346456691" y="213.1653543307087"/>
    <g transform="translate(717.8173228346456, 213.1653543307087)">
        <text x="15.647244094488187" y="30.236220472440944">L</text>
    </g>
    <g transform="translate(686.5228346456691, 213.1653543307087)">
        <text x="15.647244094488187" y="30.236220472440944">l</text>
    </g>
    <rect height="60.47244094488189" kdd:x-key-name="AC10" rx="10.0" width="62.58897637795275" x="756.935433070866" y="213.1653543307087"/>
    <g transform="translate(788.2299212598424, 213.1653543307087)">
        <text x="15.647244094488187" y="30.236220472440944">:</text>
    </g>
    <g transform="translate(756.935433070866, 213.1653543307087)">
        <text x="15.647244094488187" y="30.236220472440944">;</text>
    </g>
    <rect height="60.47244094488189" kdd:x-key-name="AC11" rx="10.0" width="62.58897637795275" x="827.3480314960628" y="213.1653543307087"/>
    <g transform="translate(858.6425196850392, 213.1653543307087)">
        <text x="15.647244094488187" y="30.236220472440944">"</text>
    </g>
    <g transform="translate(827.3480314960628, 213.1653543307087)">
        <text x="15.647244094488187" y="30.236220472440944">'</text>
    </g>
    <rect height="60.47244094488189" kdd:x-key-name="BKSL" rx="10.0" width="62.58897637795275" x="897.7606299212597" y="213.1653543307087"/>
    <g transform="translate(929.0551181102361, 213.1653543307087)">
        <text x="15.647244094488187" y="30.236220472440944">|</text>
    </g>
    <g transform="translate(897.7606299212597, 213.1653543307087)">
        <text x="15.647244094488187" y="30.236220472440944">\</text>
    </g>
    <rect height="60.47244094488189" kdd:x-key-name="PGUP" rx="10.0" width="62.58897637795275" x="1056.1889763779525" y="213.1653543307087"/>
    <g transform="translate(1056.1889763779525, 213.1653543307087)">
        <text x="31.294488188976374" y="30.236220472440944">Prior</text>
    </g>
    <rect height="60.47244094488189" kdd:x-key-name="LFSH" rx="10.0" width="62.58897637795275" x="0.0" y="284.22047244094495"/>
    <g transform="translate(0.0, 284.22047244094495)">
        <text x="31.294488188976374" y="30.236220472440944">Shift_L</text>
    </g>
    <rect height="60.47244094488189" kdd:x-key-name="LSGT" rx="10.0" width="62.58897637795275" x="70.41259842519685" y="284.22047244094495"/>
    <g transform="translate(101.70708661417322, 284.22047244094495)">
        <text x="15.647244094488187" y="15.118110236220472">¦</text>
    </g>
    <g transform="translate(101.70708661417322, 314.4566929133859)">
        <text x="15.647244094488187" y="15.118110236220472">|</text>
    </g>
    <g transform="translate(70.41259842519685, 284.22047244094495)">
        <text x="15.647244094488187" y="15.118110236220472">&gt;</text>
    </g>
    <g transform="translate(70.41259842519685, 314.4566929133859)">
        <text x="15.647244094488187" y="15.118110236220472">&lt;</text>
    </g>
    <rect height="60.47244094488189" kdd:x-key-name="AB01" rx="10.0" width="62.58897637795275" x="140.8251968503937" y="284.22047244094495"/>
    <g transform="translate(172.11968503937007, 284.22047244094495)">
        <text x="15.647244094488187" y="30.236220472440944">Z</text>
    </g>
    <g transform="translate(140.8251968503937, 284.22047244094495)">
        <text x="15.647244094488187" y="30.236220472440944">z</text>
    </g>
    <rect height="60.47244094488189" kdd:x-key-name="AB02" rx="10.0" width="62.58897637795275" x="211.23779527559054" y="284.22047244094495"/>
    <g transform="translate(242.53228346456692, 284.22047244094495)">
        <text x="15.647244094488187" y="30.236220472440944">X</text>
    </g>
    <g transform="translate(211.23779527559054, 284.22047244094495)">
        <text x="15.647244094488187" y="30.236220472440944">x</text>
    </g>
    <rect height="60.47244094488189" kdd:x-key-name="AB03" rx="10.0" width="62.58897637795275" x="281.6503937007874" y="284.22047244094495"/>
    <g transform="translate(312.9448818897638, 284.22047244094495)">
        <text x="15.647244094488187" y="30.236220472440944">C</text>
    </g>
    <g transform="translate(281.6503937007874, 284.22047244094495)">
        <text x="15.647244094488187" y="30.236220472440944">c</text>
    </g>
    <rect height="60.47244094488189" kdd:x-key-name="AB04" rx="10.0" width="62.58897637795275" x="352.0629921259842" y="284.22047244094495"/>
    <g transform="translate(383.3574803149605, 284.22047244094495)">
        <text x="15.647244094488187" y="30.236220472440944">V</text>
    </g>
    <g transform="translate(352.0629921259842, 284.22047244094495)">
        <text x="15.647244094488187" y="30.236220472440944">v</text>
    </g>
    <rect height="60.47244094488189" kdd:x-key-name="AB05" rx="10.0" width="62.58897637795275" x="422.475590551181" y="284.22047244094495"/>
    <g transform="translate(453.7700787401574, 284.22047244094495)">
        <text x="15.647244094488187" y="30.236220472440944">B</text>
    </g>
    <g transform="translate(422.475590551181, 284.22047244094495)">
        <text x="15.647244094488187" y="30.236220472440944">b</text>
    </g>
    <rect height="60.47244094488189" kdd:x-key-name="AB06" rx="10.0" width="62.58897637795275" x="492.8881889763779" y="284.22047244094495"/>
    <g transform="translate(524.1826771653542, 284.22047244094495)">
        <text x="15.647244094488187" y="30.236220472440944">N</text>
    </g>
    <g transform="translate(492.8881889763779, 284.22047244094495)">
        <text x="15.647244094488187" y="30.236220472440944">n</text>
    </g>
    <rect height="60.47244094488189" kdd:x-key-name="AB07" rx="10.0" width="62.58897637795275" x="563.3007874015747" y="284.22047244094495"/>
    <g transform="translate(594.5952755905511, 284.22047244094495)">
        <text x="15.647244094488187" y="30.236220472440944">M</text>
    </g>
    <g transform="translate(563.3007874015747, 284.22047244094495)">
        <text x="15.647244094488187" y="30.236220472440944">m</text>
    </g>
    <rect height="60.47244094488189" kdd:x-key-name="AB08" rx="10.0" width="62.58897637795275" x="633.7133858267716" y="284.22047244094495"/>
    <g transform="translate(665.007874015748, 284.22047244094495)">
        <text x="15.647244094488187" y="30.236220472440944">&lt;</text>
    </g>
    <g transform="translate(633.7133858267716, 284.22047244094495)">
        <text x="15.647244094488187" y="30.236220472440944">,</text>
    </g>
    <rect height="60.47244094488189" kdd:x-key-name="AB09" rx="10.0" width="62.58897637795275" x="704.1259842519684" y="284.22047244094495"/>
    <g transform="translate(735.4204724409448, 284.22047244094495)">
        <text x="15.647244094488187" y="30.236220472440944">&gt;</text>
    </g>
    <g transform="translate(704.1259842519684, 284.22047244094495)">
        <text x="15.647244094488187" y="30.236220472440944">.</text>
    </g>
    <rect height="60.47244094488189" kdd:x-key-name="AB10" rx="10.0" width="80.19212598425196" x="774.5385826771652" y="284.22047244094495"/>
    <g transform="translate(814.6346456692912, 284.22047244094495)">
        <text x="20.04803149606299" y="30.236220472440944">?</text>
    </g>
    <g transform="translate(774.5385826771652, 284.22047244094495)">
        <text x="20.04803149606299" y="30.236220472440944">/</text>
    </g>
    <rect height="60.47244094488189" kdd:x-key-name="RTSH" rx="10.0" width="115.39842519685038" x="862.5543307086613" y="284.22047244094495"/>
    <g transform="translate(862.5543307086613, 284.22047244094495)">
        <text x="57.69921259842519" y="30.236220472440944">Shift_R</text>
    </g>
    <rect height="60.47244094488189" kdd:x-key-name="UP" rx="10.0" width="62.58897637795275" x="985.7763779527558" y="284.22047244094495"/>
    <g transform="translate(985.7763779527558, 284.22047244094495)">
        <text x="31.294488188976374" y="30.236220472440944">Up</text>
    </g>
    <rect height="60.47244094488189" kdd:x-key-name="PGDN" rx="10.0" width="62.58897637795275" x="1056.1889763779525" y="284.22047244094495"/>
    <g transform="translate(1056.1889763779525, 284.22047244094495)">
        <text x="31.294488188976374" y="30.236220472440944">Next</text>
    </g>
    <rect height="60.47244094488189" kdd:x-key-name="LCTL" rx="10.0" width="80.19212598425196" x="0.0" y="355.27559055118115"/>
    <g transform="translate(0.0, 355.27559055118115)">
        <text x="40.09606299212598" y="30.236220472440944">Control_L</text>
    </g>
    <rect height="60.47244094488189" kdd:x-key-name="LWIN" rx="10.0" width="80.19212598425196" x="88.01574803149605" y="355.27559055118115"/>
    <g transform="translate(88.01574803149605, 355.27559055118115)">
        <text x="40.09606299212598" y="30.236220472440944">Super_L</text>
    </g>
    <rect height="60.47244094488189" kdd:x-key-name="LALT" rx="10.0" width="80.19212598425196" x="176.0314960629921" y="355.27559055118115"/>
    <g transform="translate(216.12755905511807, 355.27559055118115)">
        <text x="20.04803149606299" y="30.236220472440944">Meta_L</text>
    </g>
    <g transform="translate(176.0314960629921, 355.27559055118115)">
        <text x="20.04803149606299" y="30.236220472440944">Alt_L</text>
    </g>
    <rect height="60.47244094488189" kdd:x-key-name="SPCE" rx="10.0" width="397.0488188976378" x="264.0472440944882" y="355.27559055118115"/>
    <g transform="translate(264.0472440944882, 355.27559055118115)">
        <text x="198.5244094488189" y="30.236220472440944"/>
    </g>
    <rect height="60.47244094488189" kdd:x-key-name="RALT" rx="10.0" width="80.19212598425196" x="668.9196850393702" y="355.27559055118115"/>
    <g transform="translate(709.0157480314962, 355.27559055118115)">
        <text x="20.04803149606299" y="30.236220472440944">Meta_R</text>
    </g>
    <g transform="translate(668.9196850393702, 355.27559055118115)">
        <text x="20.04803149606299" y="30.236220472440944">Alt_R</text>
    </g>
    <rect height="60.47244094488189" rx="10.0" width="80.19212598425196" x="756.9354330708661" y="355.27559055118115"/>
    <g transform="translate(756.9354330708661, 355.27559055118115)">
        <text class="fn" x="40.1" y="30.236220472440944">Fn</text>
    </g>
    <rect height="60.47244094488189" kdd:x-key-name="RCTL" rx="10.0" width="62.58897637795275" x="844.9511811023622" y="355.27559055118115"/>
    <g transform="translate(844.9511811023622, 355.27559055118115)">
        <text x="31.294488188976374" y="30.236220472440944">Control_R</text>
    </g>
    <rect height="60.47244094488189" kdd:x-key-name="LEFT" rx="10.0" width="62.58897637795275" x="915.363779527559" y="355.27559055118115"/>
    <g transform="translate(915.363779527559, 355.27559055118115)">
        <text x="31.294488188976374" y="30.236220472440944">Left</text>
    </g>
    <rect height="60.47244094488189" kdd:x-key-name="DOWN" rx="10.0" width="62.58897637795275" x="985.7763779527559" y="355.27559055118115"/>
    <g transform="translate(985.7763779527559, 355.27559055118115)">
        <text x="31.294488188976374" y="30.236220472440944">Down</text>
    </g>
    <rect height="60.47244094488189" kdd:x-key-name="RGHT" rx="10.0" width="62.58897637795275" x="1056.1889763779527" y="355.27559055118115"/>
    <g transform="translate(1056.1889763779527, 355.27559055118115)">
        <text x="31.294488188976374" y="30.236220472440944">Right</text>
    </g>
</svg>
