<?xml version="1.0" encoding="UTF-8"?>
<svg xmlns="http://www.w3.org/2000/svg" height="415.7480" width="1118.778" xmlns:kdd="https://io.github.oliviercailloux.keyboardd">
    <style>text.annotation {
  font-size: 60%;
  text-anchor: start;
}</style>
    <style>text {
text-anchor: middle;
dominant-baseline: middle;
font-size: 16px;
}</style>
    <style>
    rect {
      fill-opacity: 0;
      stroke: black;
      stroke-width: 1px;
    }

    path {
      fill-opacity: 0;
      stroke: black;
      stroke-width: 1px;
    }
  </style>
    <rect height="60.4724" kdd:x-key-name="ESC" rx="10" width="62.589"/>
    <g transform="translate(0, 0)">
        <text x="31.2945" y="30.2362">⎋</text>
    </g>
    <rect height="60.4724" kdd:x-key-name="FK01" rx="10" width="62.589" x="70.4126" y="0"/>
    <g transform="translate(70.4126, 0)">
        <text x="31.2945" y="30.2362">F1</text>
    </g>
    <rect height="60.4724" kdd:x-key-name="FK02" rx="10" width="62.589" x="140.8252" y="0"/>
    <g transform="translate(140.8252, 0)">
        <text x="31.2945" y="30.2362">F2</text>
    </g>
    <rect height="60.4724" kdd:x-key-name="FK03" rx="10" width="62.589" x="211.2378" y="0"/>
    <g transform="translate(211.2378, 0)">
        <text x="31.2945" y="30.2362">F3</text>
    </g>
    <rect height="60.4724" kdd:x-key-name="FK04" rx="10" width="62.589" x="281.6504" y="0"/>
    <g transform="translate(281.6504, 0)">
        <text x="31.2945" y="30.2362">F4</text>
    </g>
    <rect height="60.4724" kdd:x-key-name="FK05" rx="10" width="62.589" x="352.063" y="0"/>
    <g transform="translate(352.063, 0)">
        <text x="31.2945" y="30.2362">F5</text>
    </g>
    <rect height="60.4724" kdd:x-key-name="FK06" rx="10" width="62.589" x="422.4756" y="0"/>
    <g transform="translate(422.4756, 0)">
        <text x="31.2945" y="30.2362">F6</text>
    </g>
    <rect height="60.4724" kdd:x-key-name="FK07" rx="10" width="62.589" x="492.8882" y="0"/>
    <g transform="translate(492.8882, 0)">
        <text x="31.2945" y="30.2362">F7</text>
    </g>
    <rect height="60.4724" kdd:x-key-name="FK08" rx="10" width="62.589" x="563.3008" y="0"/>
    <g transform="translate(563.3008, 0)">
        <text x="31.2945" y="30.2362">F8</text>
    </g>
    <rect height="60.4724" kdd:x-key-name="FK09" rx="10" width="62.589" x="633.7134" y="0"/>
    <g transform="translate(633.7134, 0)">
        <text x="31.2945" y="30.2362">F9</text>
    </g>
    <rect height="60.4724" kdd:x-key-name="FK10" rx="10" width="62.589" x="704.126" y="0"/>
    <g transform="translate(704.126, 0)">
        <text x="31.2945" y="30.2362">F10</text>
    </g>
    <rect height="60.4724" kdd:x-key-name="FK11" rx="10" width="62.589" x="774.5386" y="0"/>
    <g transform="translate(774.5386, 0)">
        <text x="31.2945" y="30.2362">F11</text>
    </g>
    <rect height="60.4724" kdd:x-key-name="FK12" rx="10" width="62.589" x="844.9512" y="0"/>
    <g transform="translate(844.9512, 0)">
        <text x="31.2945" y="30.2362">F12</text>
    </g>
    <rect height="60.4724" kdd:x-key-name="PRSC" rx="10" width="62.589" x="915.3638" y="0"/>
    <g transform="translate(915.3638, 0)">
        <text x="15.6473" y="30.2362">⎙</text>
        <text x="46.9418" y="30.2362">&#128498;</text>
    </g>
    <rect height="60.4724" kdd:x-key-name="PAUS" rx="10" width="62.589" x="985.7764" y="0"/>
    <g transform="translate(985.7764, 0)">
        <text x="15.6472" y="30.2362">⏸</text>
        <text x="46.9417" y="30.2362">⎊</text>
    </g>
    <rect height="60.4724" kdd:x-key-name="DELE" rx="10" width="62.589" x="1056.189" y="0"/>
    <g transform="translate(1056.189, 0)">
        <text x="31.2945" y="30.2362">⌦</text>
    </g>
    <text class="annotation" x="5" y="66.0551">dead_cedilla</text>
    <rect height="60.4724" kdd:x-key-name="TLDE" rx="10" width="62.589" x="0" y="71.0551"/>
    <g transform="translate(0, 71.0551)">
        <text x="15.6472" y="45.3543">²</text>
        <text x="15.6472" y="15.1181">³</text>
        <text x="46.9417" y="45.3543">¹</text>
        <text x="46.9417" y="15.1181">¸</text>
    </g>
    <text class="annotation" x="70.4126" y="66.0551">dead_ogonek</text>
    <text class="annotation" x="70.4126" y="136.5275">dead_caron</text>
    <rect height="60.4724" kdd:x-key-name="AE01" rx="10" width="62.589" x="70.4126" y="71.0551"/>
    <g transform="translate(70.4126, 71.0551)">
        <text x="7.8236" y="45.3543">&amp;</text>
        <text x="7.8236" y="15.1181">1</text>
        <text x="23.4709" y="45.3543">ˇ</text>
        <text x="23.4709" y="15.1181">˛</text>
        <text x="39.1181" y="45.3543">ⅰ</text>
        <text x="39.1181" y="15.1181">Ⅰ</text>
        <text x="54.7654" y="45.3543">ⅽ</text>
        <text x="54.7654" y="15.1181">Ⅽ</text>
    </g>
    <rect height="60.4724" kdd:x-key-name="AE02" rx="10" width="62.589" x="140.8252" y="71.0551"/>
    <g transform="translate(140.8252, 71.0551)">
        <text x="15.6472" y="45.3543">é</text>
        <text x="15.6472" y="15.1181">2</text>
        <text x="46.9417" y="45.3543">~</text>
        <text x="46.9417" y="15.1181">É</text>
    </g>
    <text class="annotation" x="221.2378" y="66.0551">dead_breve</text>
    <rect height="60.4724" kdd:x-key-name="AE03" rx="10" width="62.589" x="211.2378" y="71.0551"/>
    <g transform="translate(211.2378, 71.0551)">
        <text x="15.6472" y="45.3543">"</text>
        <text x="15.6472" y="15.1181">3</text>
        <text x="46.9417" y="45.3543">#</text>
        <text x="46.9417" y="15.1181">˘</text>
    </g>
    <text class="annotation" x="296.6504" y="66.0551">EM DASH</text>
    <rect height="60.4724" kdd:x-key-name="AE04" rx="10" width="62.589" x="281.6504" y="71.0551"/>
    <g transform="translate(281.6504, 71.0551)">
        <text x="15.6472" y="45.3543">'</text>
        <text x="15.6472" y="15.1181">4</text>
        <text x="46.9417" y="45.3543">{</text>
        <text x="46.9417" y="15.1181">—</text>
    </g>
    <text class="annotation" x="357.063" y="66.0551">EN DASH</text>
    <rect height="60.4724" kdd:x-key-name="AE05" rx="10" width="62.589" x="352.063" y="71.0551"/>
    <g transform="translate(352.063, 71.0551)">
        <text x="7.8236" y="45.3543">(</text>
        <text x="7.8236" y="15.1181">5</text>
        <text x="23.4709" y="45.3543">[</text>
        <text x="23.4709" y="15.1181">–</text>
        <text x="39.1181" y="45.3543">ⅴ</text>
        <text x="39.1181" y="15.1181">Ⅴ</text>
        <text x="54.7654" y="45.3543">ⅼ</text>
        <text x="54.7654" y="15.1181">Ⅼ</text>
    </g>
    <text class="annotation" x="412.4756" y="66.0551">NON-BREAKING HYPHEN</text>
    <text class="annotation" x="432.4756" y="136.5275">minus</text>
    <rect height="60.4724" kdd:x-key-name="AE06" rx="10" width="62.589" x="422.4756" y="71.0551"/>
    <g transform="translate(422.4756, 71.0551)">
        <text x="10.4315" y="45.3543">-</text>
        <text x="10.4315" y="15.1181">6</text>
        <text x="31.2945" y="45.3543">|</text>
        <text x="31.2945" y="15.1181">‑</text>
        <text x="52.1575" y="45.3543">ⅾ</text>
        <text x="52.1575" y="15.1181">Ⅾ</text>
    </g>
    <text class="annotation" x="512.8882" y="136.5275">grave</text>
    <rect height="60.4724" kdd:x-key-name="AE07" rx="10" width="62.589" x="492.8882" y="71.0551"/>
    <g transform="translate(492.8882, 71.0551)">
        <text x="15.6473" y="45.3543">è</text>
        <text x="15.6473" y="15.1181">7</text>
        <text x="46.9418" y="45.3543">`</text>
        <text x="46.9418" y="15.1181">È</text>
    </g>
    <rect height="60.4724" kdd:x-key-name="AE08" rx="10" width="62.589" x="563.3008" y="71.0551"/>
    <g transform="translate(563.3008, 71.0551)">
        <text x="15.6472" y="45.3543">_</text>
        <text x="15.6472" y="15.1181">8</text>
        <text x="46.9417" y="45.3543">\</text>
        <text x="46.9417" y="15.1181">™</text>
    </g>
    <rect height="60.4724" kdd:x-key-name="AE09" rx="10" width="62.589" x="633.7134" y="71.0551"/>
    <g transform="translate(633.7134, 71.0551)">
        <text x="15.6473" y="45.3543">ç</text>
        <text x="15.6473" y="15.1181">9</text>
        <text x="46.9418" y="45.3543">^</text>
        <text x="46.9418" y="15.1181">Ç</text>
    </g>
    <rect height="60.4724" kdd:x-key-name="AE10" rx="10" width="62.589" x="704.126" y="71.0551"/>
    <g transform="translate(704.126, 71.0551)">
        <text x="7.8236" y="45.3543">à</text>
        <text x="7.8236" y="15.1181">0</text>
        <text x="23.4709" y="45.3543">@</text>
        <text x="23.4709" y="15.1181">À</text>
        <text x="39.1181" y="45.3543">ⅹ</text>
        <text x="39.1181" y="15.1181">Ⅹ</text>
        <text x="54.7654" y="45.3543">ⅿ</text>
        <text x="54.7654" y="15.1181">Ⅿ</text>
    </g>
    <text class="annotation" x="774.5386" y="66.0551">degree</text>
    <rect height="60.4724" kdd:x-key-name="AE11" rx="10" width="62.589" x="774.5386" y="71.0551"/>
    <g transform="translate(774.5386, 71.0551)">
        <text x="15.6473" y="45.3543">)</text>
        <text x="15.6473" y="15.1181">°</text>
        <text x="46.9418" y="45.3543">]</text>
        <text x="46.9418" y="15.1181">≠</text>
    </g>
    <rect height="60.4724" kdd:x-key-name="AE12" rx="10" width="62.589" x="844.9512" y="71.0551"/>
    <g transform="translate(844.9512, 71.0551)">
        <text x="15.6472" y="45.3543">=</text>
        <text x="15.6472" y="15.1181">+</text>
        <text x="46.9417" y="45.3543">}</text>
        <text x="46.9417" y="15.1181">±</text>
    </g>
    <rect height="60.4724" kdd:x-key-name="BKSP" rx="10" width="133.0016" x="915.3638" y="71.0551"/>
    <g transform="translate(915.3638, 71.0551)">
        <text x="33.2504" y="30.2362">⌫</text>
        <text x="99.7512" y="30.2362">⌫</text>
    </g>
    <rect height="60.4724" kdd:x-key-name="INS" rx="10" width="62.589" x="1056.189" y="71.0551"/>
    <g transform="translate(1056.189, 71.0551)">
        <text x="31.2945" y="30.2362">⇱</text>
    </g>
    <rect height="60.4724" kdd:x-key-name="TAB" rx="10" width="97.7953" x="0" y="142.1102"/>
    <g transform="translate(0, 142.1102)">
        <text x="24.4488" y="30.2362">⇥</text>
        <text x="73.3465" y="30.2362">⇤</text>
    </g>
    <rect height="60.4724" kdd:x-key-name="AD01" rx="10" width="62.589" x="105.6189" y="142.1102"/>
    <g transform="translate(105.6189, 142.1102)">
        <text x="10.4315" y="45.3543">a</text>
        <text x="10.4315" y="15.1181">A</text>
        <text x="31.2945" y="45.3543">æ</text>
        <text x="31.2945" y="15.1181">Æ</text>
        <text x="52.1575" y="45.3543">α</text>
        <text x="52.1575" y="15.1181">Α</text>
    </g>
    <rect height="60.4724" kdd:x-key-name="AD02" rx="10" width="62.589" x="176.0315" y="142.1102"/>
    <g transform="translate(176.0315, 142.1102)">
        <text x="10.4315" y="45.3543">z</text>
        <text x="10.4315" y="15.1181">Z</text>
        <text x="31.2945" y="45.3543">â</text>
        <text x="31.2945" y="15.1181">Â</text>
        <text x="52.1575" y="45.3543">ζ</text>
        <text x="52.1575" y="15.1181">Ζ</text>
    </g>
    <text class="annotation" x="266.4441" y="137.1102">cent</text>
    <rect height="60.4724" kdd:x-key-name="AD03" rx="10" width="62.589" x="246.4441" y="142.1102"/>
    <g transform="translate(246.4441, 142.1102)">
        <text x="10.4315" y="45.3543">e</text>
        <text x="10.4315" y="15.1181">E</text>
        <text x="31.2945" y="45.3543">€</text>
        <text x="31.2945" y="15.1181">¢</text>
        <text x="52.1575" y="45.3543">ε</text>
        <text x="52.1575" y="15.1181">Ε</text>
    </g>
    <rect height="60.4724" kdd:x-key-name="AD04" rx="10" width="62.589" x="316.8567" y="142.1102"/>
    <g transform="translate(316.8567, 142.1102)">
        <text x="10.4315" y="45.3543">r</text>
        <text x="10.4315" y="15.1181">R</text>
        <text x="31.2945" y="45.3543">ê</text>
        <text x="31.2945" y="15.1181">Ê</text>
        <text x="52.1575" y="45.3543">ρ</text>
        <text x="52.1575" y="15.1181">Ρ</text>
    </g>
    <text class="annotation" x="389.2693" y="137.1102">THORN</text>
    <text class="annotation" x="397.2693" y="207.5826">thorn</text>
    <rect height="60.4724" kdd:x-key-name="AD05" rx="10" width="62.589" x="387.2693" y="142.1102"/>
    <g transform="translate(387.2693, 142.1102)">
        <text x="10.4315" y="45.3543">t</text>
        <text x="10.4315" y="15.1181">T</text>
        <text x="31.2945" y="45.3543">þ</text>
        <text x="31.2945" y="15.1181">Þ</text>
        <text x="52.1575" y="45.3543">τ</text>
        <text x="52.1575" y="15.1181">Τ</text>
    </g>
    <rect height="60.4724" kdd:x-key-name="AD06" rx="10" width="62.589" x="457.6819" y="142.1102"/>
    <g transform="translate(457.6819, 142.1102)">
        <text x="10.4315" y="45.3543">y</text>
        <text x="10.4315" y="15.1181">Y</text>
        <text x="31.2945" y="45.3543">ÿ</text>
        <text x="31.2945" y="15.1181">Ÿ</text>
        <text x="52.1575" y="45.3543">ψ</text>
        <text x="52.1575" y="15.1181">Ψ</text>
    </g>
    <rect height="60.4724" kdd:x-key-name="AD07" rx="10" width="62.589" x="528.0945" y="142.1102"/>
    <g transform="translate(528.0945, 142.1102)">
        <text x="10.4315" y="45.3543">u</text>
        <text x="10.4315" y="15.1181">U</text>
        <text x="31.2945" y="45.3543">û</text>
        <text x="31.2945" y="15.1181">Û</text>
        <text x="52.1575" y="45.3543">υ</text>
        <text x="52.1575" y="15.1181">Υ</text>
    </g>
    <rect height="60.4724" kdd:x-key-name="AD08" rx="10" width="62.589" x="598.5071" y="142.1102"/>
    <g transform="translate(598.5071, 142.1102)">
        <text x="10.4315" y="45.3543">i</text>
        <text x="10.4315" y="15.1181">I</text>
        <text x="31.2945" y="45.3543">î</text>
        <text x="31.2945" y="15.1181">Î</text>
        <text x="52.1575" y="45.3543">ι</text>
        <text x="52.1575" y="15.1181">Ι</text>
    </g>
    <rect height="60.4724" kdd:x-key-name="AD09" rx="10" width="62.589" x="668.9197" y="142.1102"/>
    <g transform="translate(668.9197, 142.1102)">
        <text x="10.4315" y="45.3543">o</text>
        <text x="10.4315" y="15.1181">O</text>
        <text x="31.2945" y="45.3543">œ</text>
        <text x="31.2945" y="15.1181">Œ</text>
        <text x="52.1575" y="45.3543">ο</text>
        <text x="52.1575" y="15.1181">Ο</text>
    </g>
    <rect height="60.4724" kdd:x-key-name="AD10" rx="10" width="62.589" x="739.3323" y="142.1102"/>
    <g transform="translate(739.3323, 142.1102)">
        <text x="10.4315" y="45.3543">p</text>
        <text x="10.4315" y="15.1181">P</text>
        <text x="31.2945" y="45.3543">ô</text>
        <text x="31.2945" y="15.1181">Ô</text>
        <text x="52.1575" y="45.3543">π</text>
        <text x="52.1575" y="15.1181">Π</text>
    </g>
    <text class="annotation" x="774.7449" y="137.1102">dead_diaeresis</text>
    <text class="annotation" x="844.7449" y="137.1102">dead_abovering</text>
    <text class="annotation" x="829.7449" y="207.5826">dead_tilde</text>
    <rect height="60.4724" kdd:x-key-name="AD11" rx="10" width="62.589" x="809.7449" y="142.1102"/>
    <g transform="translate(809.7449, 142.1102)">
        <text x="15.6473" y="45.3543">^</text>
        <text x="15.6473" y="15.1181">̈</text>
        <text x="46.9418" y="45.3543">̃</text>
        <text x="46.9418" y="15.1181">˚</text>
    </g>
    <text class="annotation" x="925.1575" y="137.1102">Ooblique</text>
    <text class="annotation" x="909.1575" y="175.3464">oslash</text>
    <rect height="60.4724" kdd:x-key-name="AD12" rx="10" width="62.589" x="880.1575" y="142.1102"/>
    <g transform="translate(880.1575, 142.1102)">
        <text x="15.6472" y="45.3543">$</text>
        <text x="15.6472" y="15.1181">£</text>
        <text x="46.9417" y="45.3543">ø</text>
        <text x="46.9417" y="15.1181">Ø</text>
    </g>
    <rect height="132.01" kdd:x-key-name="RTRN" rx="10" style="stroke: white" width="80.19" x="968.1701" y="142.1102"/>
    <g transform="translate(968.1701, 142.1102)">
        <text x="40.095" y="66.005">⏎</text>
    </g>
    <path d="M950.5700787401573 142.11023622047244 m0 10 a10 10 0 0 1 10 -10 h77.8 a10 10 0 0 1 10 10 v111.24 a10 10 0 0 1 -10 10 h-60.19 a10 10 0 0 1 -10 -10 v-56.07 a5 5 0 0 0 -5 -5 h-2.8 a10 10 0 0 1 -10 -10 Z"/>
    <rect height="60.4724" kdd:x-key-name="END" rx="10" width="62.589" x="1056.189" y="142.1102"/>
    <g transform="translate(1056.189, 142.1102)">
        <text x="31.2945" y="30.2362">⇲</text>
    </g>
    <rect height="60.4724" kdd:x-key-name="CAPS" rx="10" width="115.3984" x="0" y="213.1654"/>
    <g transform="translate(0, 213.1654)">
        <text x="57.6992" y="30.2362">⇪</text>
    </g>
    <rect height="60.4724" kdd:x-key-name="AC01" rx="10" width="62.589" x="123.2220" y="213.1654"/>
    <g transform="translate(123.222, 213.1654)">
        <text x="10.4315" y="45.3543">q</text>
        <text x="10.4315" y="15.1181">Q</text>
        <text x="31.2945" y="45.3543">ä</text>
        <text x="31.2945" y="15.1181">Ä</text>
        <text x="52.1575" y="45.3543">θ</text>
        <text x="52.1575" y="15.1181">Θ</text>
    </g>
    <text class="annotation" x="183.6346" y="208.1654">doublelowquotemark</text>
    <rect height="60.4724" kdd:x-key-name="AC02" rx="10" width="62.589" x="193.6346" y="213.1654"/>
    <g transform="translate(193.6346, 213.1654)">
        <text x="7.8236" y="45.3543">s</text>
        <text x="7.8236" y="15.1181">S</text>
        <text x="23.4709" y="45.3543">ß</text>
        <text x="23.4709" y="15.1181">„</text>
        <text x="39.1181" y="45.3543">σ</text>
        <text x="39.1181" y="15.1181">Σ</text>
        <text x="54.7654" y="45.3543">ς</text>
    </g>
    <rect height="60.4724" kdd:x-key-name="AC03" rx="10" width="62.589" x="264.0472" y="213.1654"/>
    <g transform="translate(264.0472, 213.1654)">
        <text x="10.4315" y="45.3543">d</text>
        <text x="10.4315" y="15.1181">D</text>
        <text x="31.2945" y="45.3543">ë</text>
        <text x="31.2945" y="15.1181">Ë</text>
        <text x="52.1575" y="45.3543">δ</text>
        <text x="52.1575" y="15.1181">Δ</text>
    </g>
    <text class="annotation" x="294.4595" y="208.1654">singlelowquotemark</text>
    <text class="annotation" x="294.4595" y="278.6378">leftsinglequotemark</text>
    <rect height="60.4724" kdd:x-key-name="AC04" rx="10" width="62.589" x="334.4595" y="213.1654"/>
    <g transform="translate(334.4595, 213.1654)">
        <text x="10.4315" y="45.3543">f</text>
        <text x="10.4315" y="15.1181">F</text>
        <text x="31.2945" y="45.3543">‘</text>
        <text x="31.2945" y="15.1181">‚</text>
        <text x="52.1575" y="45.3543">φ</text>
        <text x="52.1575" y="15.1181">Φ</text>
    </g>
    <text class="annotation" x="394.8724" y="278.6378">rightsinglequotemark</text>
    <rect height="60.4724" kdd:x-key-name="AC05" rx="10" width="62.589" x="404.8724" y="213.1654"/>
    <g transform="translate(404.8724, 213.1654)">
        <text x="10.4315" y="45.3543">g</text>
        <text x="10.4315" y="15.1181">G</text>
        <text x="31.2945" y="45.3543">’</text>
        <text x="31.2945" y="15.1181">¥</text>
        <text x="52.1575" y="45.3543">γ</text>
        <text x="52.1575" y="15.1181">Σ</text>
    </g>
    <rect height="60.4724" kdd:x-key-name="AC06" rx="10" width="62.589" x="475.2850" y="213.1654"/>
    <g transform="translate(475.285, 213.1654)">
        <text x="10.4315" y="45.3543">h</text>
        <text x="10.4315" y="15.1181">H</text>
        <text x="31.2945" y="45.3543">ð</text>
        <text x="31.2945" y="15.1181">Ð</text>
        <text x="52.1575" y="45.3543">η</text>
        <text x="52.1575" y="15.1181">Η</text>
    </g>
    <rect height="60.4724" kdd:x-key-name="AC07" rx="10" width="62.589" x="545.6976" y="213.1654"/>
    <g transform="translate(545.6976, 213.1654)">
        <text x="10.4315" y="45.3543">j</text>
        <text x="10.4315" y="15.1181">J</text>
        <text x="31.2945" y="45.3543">ü</text>
        <text x="31.2945" y="15.1181">Ü</text>
        <text x="52.1575" y="45.3543">ϲ</text>
        <text x="52.1575" y="15.1181">Ϲ</text>
    </g>
    <rect height="60.4724" kdd:x-key-name="AC08" rx="10" width="62.589" x="616.1102" y="213.1654"/>
    <g transform="translate(616.1102, 213.1654)">
        <text x="10.4315" y="45.3543">k</text>
        <text x="10.4315" y="15.1181">K</text>
        <text x="31.2945" y="45.3543">ï</text>
        <text x="31.2945" y="15.1181">Ï</text>
        <text x="52.1575" y="45.3543">κ</text>
        <text x="52.1575" y="15.1181">Κ</text>
    </g>
    <rect height="60.4724" kdd:x-key-name="AC09" rx="10" width="62.589" x="686.5228" y="213.1654"/>
    <g transform="translate(686.5228, 213.1654)">
        <text x="10.4315" y="45.3543">l</text>
        <text x="10.4315" y="15.1181">L</text>
        <text x="31.2945" y="45.3543">ŀ</text>
        <text x="31.2945" y="15.1181">Ŀ</text>
        <text x="52.1575" y="45.3543">λ</text>
        <text x="52.1575" y="15.1181">Λ</text>
    </g>
    <rect height="60.4724" kdd:x-key-name="AC10" rx="10" width="62.589" x="756.9354" y="213.1654"/>
    <g transform="translate(756.9354, 213.1654)">
        <text x="10.4315" y="45.3543">m</text>
        <text x="10.4315" y="15.1181">M</text>
        <text x="31.2945" y="45.3543">ö</text>
        <text x="31.2945" y="15.1181">Ö</text>
        <text x="52.1575" y="45.3543">μ</text>
        <text x="52.1575" y="15.1181">Μ</text>
    </g>
    <text class="annotation" x="867.348" y="278.6378">dead_acute</text>
    <rect height="60.4724" kdd:x-key-name="AC11" rx="10" width="62.589" x="827.3480" y="213.1654"/>
    <g transform="translate(827.348, 213.1654)">
        <text x="15.6472" y="45.3543">ù</text>
        <text x="15.6472" y="15.1181">%</text>
        <text x="46.9417" y="45.3543">´</text>
        <text x="46.9417" y="15.1181">Ù</text>
    </g>
    <text class="annotation" x="902.7606" y="208.1654">dead_macron</text>
    <text class="annotation" x="937.7606" y="278.6378">dead_grave</text>
    <rect height="60.4724" kdd:x-key-name="BKSL" rx="10" width="62.589" x="897.7606" y="213.1654"/>
    <g transform="translate(897.7606, 213.1654)">
        <text x="15.6473" y="45.3543">*</text>
        <text x="15.6473" y="15.1181">µ</text>
        <text x="46.9418" y="45.3543">̀</text>
        <text x="46.9418" y="15.1181">̄</text>
    </g>
    <rect height="60.4724" kdd:x-key-name="PGUP" rx="10" width="62.589" x="1056.189" y="213.1654"/>
    <g transform="translate(1056.189, 213.1654)">
        <text x="31.2945" y="30.2362">⇞</text>
    </g>
    <rect height="60.4724" kdd:x-key-name="LFSH" rx="10" width="62.589" x="0" y="284.2205"/>
    <g transform="translate(0, 284.2205)">
        <text x="31.2945" y="30.2362">⇧</text>
    </g>
    <rect height="60.4724" kdd:x-key-name="LSGT" rx="10" width="62.589" x="70.4126" y="284.2205"/>
    <g transform="translate(70.4126, 284.2205)">
        <text x="15.6472" y="45.3543">&lt;</text>
        <text x="15.6472" y="15.1181">&gt;</text>
        <text x="46.9417" y="45.3543">≤</text>
        <text x="46.9417" y="15.1181">≥</text>
    </g>
    <text class="annotation" x="95.8252" y="279.2205">leftdoublequotemark</text>
    <text class="annotation" x="120.8252" y="349.6929">guillemotleft</text>
    <rect height="60.4724" kdd:x-key-name="AB01" rx="10" width="62.589" x="140.8252" y="284.2205"/>
    <g transform="translate(140.8252, 284.2205)">
        <text x="10.4315" y="45.3543">w</text>
        <text x="10.4315" y="15.1181">W</text>
        <text x="31.2945" y="45.3543">«</text>
        <text x="31.2945" y="15.1181">“</text>
        <text x="52.1575" y="45.3543">ω</text>
        <text x="52.1575" y="15.1181">Ω</text>
    </g>
    <text class="annotation" x="196.2378" y="279.2205">rightdoublequotemark</text>
    <text class="annotation" x="191.2378" y="349.6929">guillemotright</text>
    <rect height="60.4724" kdd:x-key-name="AB02" rx="10" width="62.589" x="211.2378" y="284.2205"/>
    <g transform="translate(211.2378, 284.2205)">
        <text x="10.4315" y="45.3543">x</text>
        <text x="10.4315" y="15.1181">X</text>
        <text x="31.2945" y="45.3543">»</text>
        <text x="31.2945" y="15.1181">”</text>
        <text x="52.1575" y="45.3543">χ</text>
        <text x="52.1575" y="15.1181">Χ</text>
    </g>
    <rect height="60.4724" kdd:x-key-name="AB03" rx="10" width="62.589" x="281.6504" y="284.2205"/>
    <g transform="translate(281.6504, 284.2205)">
        <text x="10.4315" y="45.3543">c</text>
        <text x="10.4315" y="15.1181">C</text>
        <text x="31.2945" y="45.3543">©</text>
        <text x="31.2945" y="15.1181">®</text>
        <text x="52.1575" y="45.3543">ξ</text>
        <text x="52.1575" y="15.1181">Ξ</text>
    </g>
    <text class="annotation" x="312.063" y="349.6929">NARROW NO-BREAK SPACE</text>
    <rect height="60.4724" kdd:x-key-name="AB04" rx="10" width="62.589" x="352.063" y="284.2205"/>
    <g transform="translate(352.063, 284.2205)">
        <text x="10.4315" y="45.3543">v</text>
        <text x="10.4315" y="15.1181">V</text>
        <text x="31.2945" y="45.3543">╫</text>
        <text x="31.2945" y="15.1181">←</text>
        <text x="52.1575" y="45.3543">ϝ</text>
        <text x="52.1575" y="15.1181">Ϝ</text>
    </g>
    <rect height="60.4724" kdd:x-key-name="AB05" rx="10" width="62.589" x="422.4756" y="284.2205"/>
    <g transform="translate(422.4756, 284.2205)">
        <text x="10.4315" y="45.3543">b</text>
        <text x="10.4315" y="15.1181">B</text>
        <text x="31.2945" y="45.3543">↓</text>
        <text x="31.2945" y="15.1181">↑</text>
        <text x="52.1575" y="45.3543">β</text>
        <text x="52.1575" y="15.1181">Β</text>
    </g>
    <rect height="60.4724" kdd:x-key-name="AB06" rx="10" width="62.589" x="492.8882" y="284.2205"/>
    <g transform="translate(492.8882, 284.2205)">
        <text x="10.4315" y="45.3543">n</text>
        <text x="10.4315" y="15.1181">N</text>
        <text x="31.2945" y="45.3543">¬</text>
        <text x="31.2945" y="15.1181">→</text>
        <text x="52.1575" y="45.3543">ν</text>
        <text x="52.1575" y="15.1181">Ν</text>
    </g>
    <rect height="60.4724" kdd:x-key-name="AB07" rx="10" width="62.589" x="563.3008" y="284.2205"/>
    <g transform="translate(563.3008, 284.2205)">
        <text x="15.6472" y="45.3543">,</text>
        <text x="15.6472" y="15.1181">?</text>
        <text x="46.9417" y="45.3543">¿</text>
        <text x="46.9417" y="15.1181">…</text>
    </g>
    <text class="annotation" x="643.7134" y="279.2205">DOT OPERATOR</text>
    <rect height="60.4724" kdd:x-key-name="AB08" rx="10" width="62.589" x="633.7134" y="284.2205"/>
    <g transform="translate(633.7134, 284.2205)">
        <text x="15.6473" y="45.3543">;</text>
        <text x="15.6473" y="15.1181">.</text>
        <text x="46.9418" y="45.3543">×</text>
        <text x="46.9418" y="15.1181">⋅</text>
    </g>
    <text class="annotation" x="719.126" y="279.2205">DIVISION SLASH</text>
    <rect height="60.4724" kdd:x-key-name="AB09" rx="10" width="62.589" x="704.126" y="284.2205"/>
    <g transform="translate(704.126, 284.2205)">
        <text x="15.6472" y="45.3543">:</text>
        <text x="15.6472" y="15.1181">/</text>
        <text x="46.9417" y="45.3543">÷</text>
        <text x="46.9417" y="15.1181">∕</text>
    </g>
    <text class="annotation" x="804.5386" y="279.2205">MINUS SIGN</text>
    <rect height="60.4724" kdd:x-key-name="AB10" rx="10" width="80.1921" x="774.5386" y="284.2205"/>
    <g transform="translate(774.5386, 284.2205)">
        <text x="20.048" y="45.3543">!</text>
        <text x="20.048" y="15.1181">§</text>
        <text x="60.1441" y="45.3543">¡</text>
        <text x="60.1441" y="15.1181">−</text>
    </g>
    <rect height="60.4724" kdd:x-key-name="RTSH" rx="10" width="115.3984" x="862.5543" y="284.2205"/>
    <g transform="translate(862.5543, 284.2205)">
        <text x="57.6992" y="30.2362">⇧</text>
    </g>
    <rect height="60.4724" kdd:x-key-name="UP" rx="10" width="62.589" x="985.7764" y="284.2205"/>
    <g transform="translate(985.7764, 284.2205)">
        <text x="31.2945" y="30.2362">&#129033;</text>
    </g>
    <rect height="60.4724" kdd:x-key-name="PGDN" rx="10" width="62.589" x="1056.189" y="284.2205"/>
    <g transform="translate(1056.189, 284.2205)">
        <text x="31.2945" y="30.2362">⇟</text>
    </g>
    <rect height="60.4724" kdd:x-key-name="LCTL" rx="10" width="80.1921" x="0" y="355.2756"/>
    <g transform="translate(0, 355.2756)">
        <text x="40.096" y="30.2362">⎈</text>
    </g>
    <rect height="60.4724" kdd:x-key-name="LWIN" rx="10" width="80.1921" x="88.0157" y="355.2756"/>
    <g transform="translate(88.0157, 355.2756)">
        <text x="40.096" y="30.2362">⊞</text>
    </g>
    <rect height="60.4724" kdd:x-key-name="LALT" rx="10" width="80.1921" x="176.0315" y="355.2756"/>
    <g transform="translate(176.0315, 355.2756)">
        <text x="20.048" y="30.2362">⎇</text>
        <text x="60.1441" y="30.2362">◆</text>
    </g>
    <text class="annotation" x="544.0472" y="350.2756">nobreakspace</text>
    <rect height="60.4724" kdd:x-key-name="SPCE" rx="10" width="397.0488" x="264.0472" y="355.2756"/>
    <g transform="translate(264.0472, 355.2756)">
        <text x="99.2622" y="45.3543">␣</text>
        <text x="99.2622" y="15.1181">␣</text>
        <text x="297.7866" y="45.3543">␣</text>
        <text x="297.7866" y="15.1181">⍽</text>
    </g>
    <rect height="60.4724" kdd:x-key-name="RALT" rx="10" width="80.1921" x="668.9197" y="355.2756"/>
    <g transform="translate(668.9197, 355.2756)">
        <text x="20.048" y="30.2362">⎇</text>
        <text x="60.1441" y="30.2362">◆</text>
    </g>
    <rect height="60.4724" rx="10" width="80.1921" x="756.9354" y="355.2756"/>
    <g transform="translate(756.9354, 355.2756)">
        <text style="text-anchor: middle; dominant-baseline: middle; font-variant: small-caps;" x="40.1" y="30.2362">Fn</text>
    </g>
    <rect height="60.4724" kdd:x-key-name="RCTL" rx="10" width="62.589" x="844.9512" y="355.2756"/>
    <g transform="translate(844.9512, 355.2756)">
        <text x="31.2945" y="30.2362">⎈</text>
    </g>
    <rect height="60.4724" kdd:x-key-name="LEFT" rx="10" width="62.589" x="915.3638" y="355.2756"/>
    <g transform="translate(915.3638, 355.2756)">
        <text x="31.2945" y="30.2362">&#129032;</text>
    </g>
    <rect height="60.4724" kdd:x-key-name="DOWN" rx="10" width="62.589" x="985.7763" y="355.2756"/>
    <g transform="translate(985.7763, 355.2756)">
        <text x="31.2945" y="30.2362">&#129035;</text>
    </g>
    <rect height="60.4724" kdd:x-key-name="RGHT" rx="10" width="62.589" x="1056.189" y="355.2756"/>
    <g transform="translate(1056.189, 355.2756)">
        <text x="31.2945" y="30.2362">&#129034;</text>
    </g>
</svg>
